<?xml version="1.0" encoding="utf-8"?>
<!-- Generator: Adobe Illustrator 25.4.8, SVG Export Plug-In . SVG Version: 6.00 Build 0)  -->
<svg version="1.1"
	 id="SVGRoot" inkscape:version="0.92.3 (unknown)" sodipodi:docname="logo.svg" xmlns:cc="http://creativecommons.org/ns#" xmlns:dc="http://purl.org/dc/elements/1.1/" xmlns:inkscape="http://www.inkscape.org/namespaces/inkscape" xmlns:rdf="http://www.w3.org/1999/02/22-rdf-syntax-ns#" xmlns:sodipodi="http://sodipodi.sourceforge.net/DTD/sodipodi-0.dtd" xmlns:svg="http://www.w3.org/2000/svg"
	 xmlns="http://www.w3.org/2000/svg" xmlns:xlink="http://www.w3.org/1999/xlink" x="0px" y="0px" viewBox="0 0 250 160"
	 style="enable-background:new 0 0 250 160;" xml:space="preserve">
<style type="text/css">
	.st0{fill:#057BFF;stroke:#000000;stroke-opacity:0;}
	.st1{fill:#057BFF;stroke:#000000;stroke-width:0.6747;stroke-opacity:0;}
	.st2{fill:#FFFFFF;}
</style>
<sodipodi:namedview  bordercolor="#666666" borderopacity="1.0" id="base" inkscape:current-layer="layer1" inkscape:cx="125" inkscape:cy="80" inkscape:document-units="px" inkscape:pageopacity="0.0" inkscape:pageshadow="2" inkscape:window-height="713" inkscape:window-maximized="1" inkscape:window-width="1299" inkscape:window-x="67" inkscape:window-y="27" inkscape:zoom="2.1496046" pagecolor="#ffffff" showgrid="false">
	</sodipodi:namedview>
<g id="layer1" inkscape:groupmode="layer" inkscape:label="Layer 1">
	<path id="path1910" inkscape:connector-curvature="0" class="st0" d="M16.9,115.5L4.6,101.7l36.2-40.9L77.1,20l12.3,13.9l12.3,13.9
		L65.5,88.5c-19.9,22.5-36.2,40.8-36.3,40.8C29.1,129.3,23.6,123.1,16.9,115.5z"/>
	<g id="g182" transform="matrix(1.8597339,0,0,-2.0998516,115.50611,114.13586)">
		<path id="path1916" inkscape:connector-curvature="0" class="st1" d="M0,13.4v13.2l9.1,9.1l9.1,9.1l6.6-6.5l6.6-6.5L15.8,16
			C7.2,7.4,0.2,0.3,0.1,0.2C0,0.2,0,6.1,0,13.4L0,13.4z"/>
	</g>
	<g id="g186" transform="matrix(1.8597339,0,0,-2.0998516,77.053693,91.082641)">
		<path id="path1914" inkscape:connector-curvature="0" class="st1" d="M6.6-19.1l-6.5,6.5v6.3V0l6.6,6.6l6.6,6.6V-6.3
			c0-10.7,0-19.4,0-19.4S10.2-22.7,6.6-19.1L6.6-19.1z"/>
	</g>
	<g id="g194" transform="matrix(1.8597339,0,0,-2.0998516,149.2337,91.082641)">
		<path id="path1918" inkscape:connector-curvature="0" class="st1" d="M6.6-19.1l-6.5,6.5v6.3V0l6.6,6.6l6.6,6.6V-6.3
			c0-10.7,0-19.4,0-19.4S10.2-22.7,6.6-19.1L6.6-19.1z"/>
	</g>
	<path id="path1920" inkscape:connector-curvature="0" class="st0" d="M187.7,90.3c0-12.9-0.1-25.4-0.1-27.6l-0.1-4.1l16.9-19.3
		c9.3-10.6,17-19.3,17-19.3c0.1,0,5.7,6.1,12.4,13.7l12.3,13.7l-16,18.3c-8.8,10-22,25-29.2,33.2l-13.2,14.9L187.7,90.3z"/>
</g>
<rect x="33.3" y="98.8" class="st2" width="68.3" height="11.3"/>
</svg>
