<?xml version="1.0" encoding="utf-8"?>
<!-- Generator: Adobe Illustrator 23.1.1, SVG Export Plug-In . SVG Version: 6.00 Build 0)  -->
<svg version="1.1" id="Layer_1" xmlns="http://www.w3.org/2000/svg" xmlns:xlink="http://www.w3.org/1999/xlink" x="0px" y="0px"
	 viewBox="0 0 103 103" style="enable-background:new 0 0 103 103;" xml:space="preserve">
<style type="text/css">
	.st0{display:none;}
	.st1{display:inline;fill:none;stroke:#026CDF;stroke-width:2;stroke-linecap:round;stroke-linejoin:round;}
	
		.st2{display:inline;fill:none;stroke:#026CDF;stroke-width:2;stroke-linecap:round;stroke-linejoin:round;stroke-dasharray:5.07,8.11;}
	
		.st3{display:inline;fill:none;stroke:#026CDF;stroke-width:2;stroke-linecap:round;stroke-linejoin:round;stroke-dasharray:4.76,7.61;}
	.st4{display:inline;fill:#026CDF;}
	.st5{fill-rule:evenodd;clip-rule:evenodd;fill:#026CDF;}
	.st6{fill:#026CDF;}
</style>
<title>SeatStatus</title>
<g id="Seat_Status" class="st0">
	<line class="st1" x1="74" y1="55" x2="74" y2="52.5"/>
	<path class="st2" d="M74,44.4v-3.7C74,34.8,78.8,30,84.7,30h3.7C94.2,30,99,34.8,99,40.7v7.8"/>
	<line class="st1" x1="99" y1="52.5" x2="99" y2="55"/>
	<path class="st3" d="M101,61.7v-5.6c0-0.6-0.5-1.1-1.1-1.1H73.1c-0.6,0-1.1,0.5-1.1,1.1v5.6c0,1.8,1.5,3.3,3.3,3.3h22.3
		C99.5,65,101,63.5,101,61.7z"/>
	<path class="st4" d="M99,72.5H88V68c0-0.8-0.7-1.5-1.5-1.5S85,67.2,85,68v4.5H18v-7h9.7c2.7,0,4.8-2.2,4.8-4.8v-5.6
		c0-1.2-0.8-2.2-2-2.5V39.7c0-6.7-5.4-12.1-12.1-12.2h-3.7c-6.7,0-12.1,5.4-12.2,12.2v12.9c-1.2,0.3-2,1.3-2,2.5v5.6
		c0,2.7,2.2,4.8,4.8,4.8H15v7H3c-0.8,0-1.5,0.7-1.5,1.5s0.7,1.5,1.5,1.5h96c0.8,0,1.5-0.7,1.5-1.5S99.8,72.5,99,72.5z M14.7,30.5
		h3.7c5.1,0,9.1,4.1,9.1,9.2v12.8h-22V39.7C5.5,34.6,9.6,30.5,14.7,30.5z M3.5,60.7v-5.2h26v5.2c0,1-0.8,1.8-1.8,1.8h0H5.3
		C4.3,62.5,3.5,61.7,3.5,60.7L3.5,60.7z M66.3,47c0.9,0.9,0.9,2.4,0,3.3c0,0,0,0,0,0L56.6,60c-0.9,0.9-2.4,0.9-3.3,0s-0.9-2.4,0-3.3
		l5.8-5.8l-20.6-0.2c-0.6,0-1.2-0.3-1.6-0.7c-0.9-0.9-0.9-2.4,0-3.3c0.4-0.4,1-0.7,1.6-0.7L59,46.2l-5.9-5.9c-0.9-0.9-0.9-2.3,0-3.2
		s2.3-0.9,3.2,0L66.3,47"/>
</g>
<path class="st5" d="M76.4,10.6h-49c-4.2,0-7.5,3.3-7.5,7.4v3.7H18c-1,0-1.9,0.8-1.9,1.9c0,1,0.8,1.9,1.9,1.9h1.9v7.4H18
	c-1,0-1.9,0.8-1.9,1.9s0.8,1.9,1.9,1.9h1.9v7.4H18c-1,0-1.9,0.8-1.9,1.9c0,1,0.8,1.9,1.9,1.9h1.9v7.4H18c-1,0-1.9,0.8-1.9,1.9
	c0,1,0.8,1.9,1.9,1.9h1.9v7.4H18c-1,0-1.9,0.8-1.9,1.9c0,1,0.8,1.9,1.9,1.9h1.9v7.4H18c-1,0-1.9,0.8-1.9,1.9c0,1,0.8,1.9,1.9,1.9
	h1.9V85c0,4.1,3.4,7.4,7.5,7.4h49c4.2,0,7.5-3.3,7.5-7.4V18C83.9,13.9,80.6,10.6,76.4,10.6 M35,88.7h-7.5c-2.1,0-3.8-1.7-3.8-3.7
	v-3.7h1.9c1,0,1.9-0.8,1.9-1.9c0-1-0.8-1.9-1.9-1.9h-1.9v-7.4h1.9c1,0,1.9-0.8,1.9-1.9c0-1-0.8-1.9-1.9-1.9h-1.9v-7.4h1.9
	c1,0,1.9-0.8,1.9-1.9c0-1-0.8-1.9-1.9-1.9h-1.9v-7.4h1.9c1,0,1.9-0.8,1.9-1.9c0-1-0.8-1.9-1.9-1.9h-1.9v-7.4h1.9
	c1,0,1.9-0.8,1.9-1.9s-0.8-1.9-1.9-1.9h-1.9v-7.4h1.9c1,0,1.9-0.8,1.9-1.9c0-1-0.8-1.9-1.9-1.9h-1.9V18c0-2.1,1.7-3.7,3.8-3.7H35
	V88.7z M80.2,85c0,2.1-1.7,3.7-3.8,3.7H38.7V14.3h37.7c2.1,0,3.8,1.7,3.8,3.7V85z"/>
<g>
	<g>
		<g>
			<path class="st6" d="M51.9,41h4.5l1.1-4.9L64,34l-1.5,7H68l-1,4.5h-5.5l-2.3,10.3c-0.1,0.6-0.3,1.4-0.3,2.3c0,1.4,1,2.3,2.3,2.3
				c1.1,0,2.2-0.2,3-0.6l-1.1,4.8c-1.1,0.2-2.3,0.6-3.3,0.6c-4.2,0-7.1-1.7-7.1-6.2c0-1.8,0.4-3.6,0.8-5.5l1.7-8h-4.5L51.9,41z"/>
		</g>
	</g>
</g>
</svg>
