<svg xmlns="http://www.w3.org/2000/svg" viewBox="0 0 103 103"><defs><style>.cls-1{fill:#026cdf;fill-rule:evenodd;}</style></defs><title>1.1IntroToManage</title><g id="Layer_18" data-name="Layer 18"><path class="cls-1" d="M100.5,53.07V40.15A12.16,12.16,0,0,0,88.35,28h-3.7A12.16,12.16,0,0,0,72.5,40.15V53.07a2.58,2.58,0,0,0-2,2.51v5.59A4.84,4.84,0,0,0,75.33,66H85v7H18V66h9.67a4.84,4.84,0,0,0,4.83-4.83V55.58a2.58,2.58,0,0,0-2-2.51V40.15A12.16,12.16,0,0,0,18.35,28h-3.7A12.16,12.16,0,0,0,2.5,40.15V53.07a2.58,2.58,0,0,0-2,2.51v5.59A4.84,4.84,0,0,0,5.33,66H15v7H3a1.5,1.5,0,0,0,0,3H99a1.5,1.5,0,0,0,0-3H88V66h9.67a4.84,4.84,0,0,0,4.83-4.83V55.58A2.58,2.58,0,0,0,100.5,53.07ZM5.5,40.15A9.16,9.16,0,0,1,14.65,31h3.7a9.16,9.16,0,0,1,9.15,9.15V53H5.5Zm-2,21V56h26v5.17A1.83,1.83,0,0,1,27.67,63H5.33A1.83,1.83,0,0,1,3.5,61.17ZM84.65,31h3.7a9.16,9.16,0,0,1,9.15,9.15V53h-22V40.15A9.16,9.16,0,0,1,84.65,31ZM99.5,61.17A1.83,1.83,0,0,1,97.67,63H75.33a1.83,1.83,0,0,1-1.83-1.83V56h26ZM38.05,51.26a1.5,1.5,0,0,1,1.09,1.06,12.84,12.84,0,0,0,1.28,3.09,1.5,1.5,0,0,1,0,1.52l-.83,1.38,2.62,2.62h0l1.37-.82a1.51,1.51,0,0,1,.77-.21,1.43,1.43,0,0,1,.75.2,12.36,12.36,0,0,0,3.08,1.27,1.55,1.55,0,0,1,1.07,1.09L49.65,64h3.7v0l.38-1.55a1.55,1.55,0,0,1,1.07-1.09,12.36,12.36,0,0,0,3.08-1.27,1.43,1.43,0,0,1,.75-.2,1.51,1.51,0,0,1,.77.21l1.37.82h0l2.62-2.62-.83-1.38a1.5,1.5,0,0,1,0-1.52,12.84,12.84,0,0,0,1.28-3.09A1.5,1.5,0,0,1,65,51.26l1.53-.39h0V47.16L65,46.77a1.5,1.5,0,0,1-1.09-1.07,12.94,12.94,0,0,0-1.28-3.08,1.52,1.52,0,0,1,0-1.53l.82-1.36h0L60.79,37.1l-1.38.83a1.51,1.51,0,0,1-.77.21,1.53,1.53,0,0,1-.75-.2,12.77,12.77,0,0,0-3.08-1.28,1.52,1.52,0,0,1-1.07-1.08L53.36,34s0,0,0,0h-3.7l-.39,1.57a1.52,1.52,0,0,1-1.07,1.08,12.77,12.77,0,0,0-3.08,1.28,1.53,1.53,0,0,1-.75.2,1.51,1.51,0,0,1-.77-.21L42.2,37.1l-2.62,2.62h0l.82,1.37a1.5,1.5,0,0,1,0,1.52,12.94,12.94,0,0,0-1.28,3.08,1.5,1.5,0,0,1-1.09,1.07l-1.55.39v3.71h0ZM51.5,41.51A7.5,7.5,0,1,1,44,49,7.5,7.5,0,0,1,51.5,41.51Z"/></g></svg>