<svg xmlns="http://www.w3.org/2000/svg" viewBox="0 0 103 103"><defs><style>.cls-1{fill:#026cdf;}</style></defs><title>TM1 Events Icon Set</title><g id="Manage_Events" data-name="Manage Events"><path class="cls-1" d="M9.75,45.5h10v10h-10Zm14,10h10v-10h-10Zm13,0h10v-10h-10Zm14,0h10v-10h-10Zm23-10h-10v10h10Zm14,0h-10v10h10Zm-78,23h10v-10h-10Zm14,0h10v-10h-10Zm13,0h10v-10h-10Zm14,0h10v-10h-10Zm23-10h-10v10h10Zm14,0h-10v10h10Zm-78,24h10v-10h-10Zm14,0h10v-10h-10Zm13,0h10v-10h-10Zm14,0h10v-10h-10Zm48,1a13,13,0,0,1-21.3,10H10.64a7.9,7.9,0,0,1-7.89-7.89V19.39a7.9,7.9,0,0,1,7.89-7.89h7.11v-5a2,2,0,0,1,4,0v5h54v-5a2,2,0,0,1,4,0v5h8.11a7.9,7.9,0,0,1,7.89,7.89V75.2A12.94,12.94,0,0,1,98.75,83.5Zm-93-64.11V30.5h87V19.39a4.89,4.89,0,0,0-4.89-4.89H79.75v7a2,2,0,0,1-4,0v-7h-54v7a2,2,0,0,1-4,0v-7H10.64A4.89,4.89,0,0,0,5.75,19.39ZM10.64,90.5H74.81A13,13,0,0,1,92.75,72.56V34.5h-87V85.61A4.89,4.89,0,0,0,10.64,90.5Zm85.11-7a9.94,9.94,0,0,0-2.88-7h-.12v-.12A10,10,0,0,0,78.63,90.5h.12v.12a10,10,0,0,0,17-7.12Zm-3-1h-6v-6a1,1,0,0,0-2,0v6h-6a1,1,0,0,0,0,2h6v6a1,1,0,0,0,2,0v-6h6a1,1,0,0,0,0-2Z"/></g></svg>