<svg xmlns="http://www.w3.org/2000/svg" viewBox="0 0 103 103"><defs><style>.cls-1,.cls-2{fill:none;stroke:#026cdf;stroke-linecap:round;stroke-linejoin:round;stroke-width:3px;}.cls-2{stroke-dasharray:5.01 8.01;}.cls-3{fill:#026cdf;}</style></defs><title>TM1 Events Icon Set</title><g id="Hot_Spot" data-name="Hot Spot"><line class="cls-1" x1="20.06" y1="39.74" x2="22.05" y2="38.23"/><path class="cls-2" d="M28.42,33.38,57.8,11a2.39,2.39,0,0,1,3.85,1.91V90.15a2.4,2.4,0,0,1-3.82,1.93L25.29,68"/><line class="cls-1" x1="22.07" y1="65.65" x2="20.06" y2="64.16"/><path class="cls-3" d="M34.78,43.11a4.57,4.57,0,1,1,4.57-4.57A4.57,4.57,0,0,1,34.78,43.11ZM39.35,52a4.58,4.58,0,1,0-4.57,4.58A4.58,4.58,0,0,0,39.35,52Zm0,13.41a4.58,4.58,0,1,0-4.57,4.58A4.58,4.58,0,0,0,39.35,65.36ZM57.9,25.13a4.58,4.58,0,1,0-4.57,4.57A4.58,4.58,0,0,0,57.9,25.13Zm0,13.41a4.58,4.58,0,1,0-4.57,4.57A4.57,4.57,0,0,0,57.9,38.54ZM57.9,52a4.58,4.58,0,1,0-4.57,4.58A4.58,4.58,0,0,0,57.9,52Zm0,13.41a4.58,4.58,0,1,0-4.57,4.58A4.58,4.58,0,0,0,57.9,65.36Zm0,13.42a4.58,4.58,0,1,0-4.57,4.57A4.58,4.58,0,0,0,57.9,78.78ZM76.45,25.13a4.58,4.58,0,1,0-4.57,4.57A4.58,4.58,0,0,0,76.45,25.13Zm0,13.41a4.58,4.58,0,1,0-4.57,4.57A4.57,4.57,0,0,0,76.45,38.54Zm0,13.41a4.58,4.58,0,1,0-4.57,4.58A4.58,4.58,0,0,0,76.45,52Zm0,13.41a4.58,4.58,0,1,0-4.57,4.58A4.58,4.58,0,0,0,76.45,65.36Zm0,13.42a4.58,4.58,0,1,0-4.57,4.57A4.58,4.58,0,0,0,76.45,78.78Zm-58.2-19V39.61a8,8,0,0,0-8-8H2.88V67.78h7.37A8,8,0,0,0,18.25,59.78ZM95,25.13a4.58,4.58,0,1,0-4.57,4.57A4.58,4.58,0,0,0,95,25.13Zm0,13.41a4.58,4.58,0,1,0-4.57,4.57A4.57,4.57,0,0,0,95,38.54ZM95,52a4.58,4.58,0,1,0-4.57,4.58A4.58,4.58,0,0,0,95,52Zm0,13.41a4.58,4.58,0,1,0-4.57,4.58A4.58,4.58,0,0,0,95,65.36Zm0,13.42a4.58,4.58,0,1,0-4.57,4.57A4.58,4.58,0,0,0,95,78.78Z"/></g></svg>