<?xml version="1.0" encoding="utf-8"?>
<!-- Generator: Adobe Illustrator 23.1.1, SVG Export Plug-In . SVG Version: 6.00 Build 0)  -->
<svg version="1.1" xmlns="http://www.w3.org/2000/svg" xmlns:xlink="http://www.w3.org/1999/xlink" x="0px" y="0px"
	 viewBox="0 0 103 103" style="enable-background:new 0 0 103 103;" xml:space="preserve">
<style type="text/css">
	.st0{display:none;}
	.st1{display:inline;}
	.st2{fill-rule:evenodd;clip-rule:evenodd;fill:#026CDF;}
	.st3{fill:#FFFFFF;}
</style>
<g id="Layer_1" class="st0">
	<title>TM1 Events Icon Set</title>
	<g id="Custom_Offer" class="st1">
		<path class="st2" d="M79.9,4.4c-4.6,0-9,1.8-12.2,5L9.4,67.3L2.1,98.8l31.6-7.1l15.7-15.6c0.2-2.1,0.3-4.3,0.4-6.4L34.4,84.9
			l0.1-16.1c0-1.2-1-2.2-2.1-2.2c0,0,0,0,0,0l-16.1-0.1l46.5-46.2l18.2,18.3L68.5,51h6.1L92,33.9c6.7-6.7,6.8-17.6,0.1-24.3
			C88.9,6.3,84.5,4.4,79.9,4.4z M30.2,70.9l-0.1,16.8L15,91.2v-5.2H9.8l3.6-15H30.2z M88.9,30.8l-5,4.9L65.8,17.4l4.9-4.9
			c2.5-2.4,5.7-3.7,9.2-3.8c7.1,0.1,12.9,5.9,12.8,13C92.7,25.2,91.3,28.4,88.9,30.8L88.9,30.8z"/>
		<path class="st2" d="M101.3,79.9l-4,1.9L97.2,82l2.9,3.1c0.2,0.2,0.2,0.5,0,0.6c-0.1,0.1-0.1,0.1-0.2,0.1l-4.3,0.9L95.4,87
			l2.1,3.7c0.1,0.2,0,0.5-0.2,0.6c-0.1,0-0.2,0.1-0.2,0.1l-4.4-0.2c-0.1,0.1-0.1,0.2-0.2,0.2l1.1,4.1c0.1,0.2-0.1,0.5-0.3,0.5
			c-0.1,0-0.2,0-0.2,0l-4.2-1.2L88.6,95l0.1,4.2c0,0.2-0.2,0.4-0.4,0.4c-0.1,0-0.2,0-0.2-0.1l-3.8-2.2l-0.3,0.1l-0.9,4.2
			c-0.1,0.2-0.3,0.4-0.5,0.3c-0.1,0-0.1-0.1-0.2-0.1l-3.2-3h-0.3l-1.8,3.8c-0.1,0.2-0.4,0.3-0.6,0.2c-0.1,0-0.1-0.1-0.2-0.2L73.9,99
			h-0.3l-2.8,3.2c-0.2,0.2-0.5,0.2-0.6,0c-0.1-0.1-0.1-0.1-0.1-0.2l-1.4-4.2l-0.3-0.1l-3.4,2.5c-0.2,0.1-0.5,0.1-0.6-0.1
			c0-0.1-0.1-0.1-0.1-0.2L64,95.6l-0.2-0.2l-4,1.6c-0.2,0.1-0.5,0-0.6-0.2c0-0.1,0-0.2,0-0.2l0.7-4.3L59.7,92l-4.2,0.6
			c-0.2,0-0.4-0.1-0.5-0.4c0-0.1,0-0.1,0-0.2l1.7-4l-0.1-0.3l-4.2-0.4c-0.2,0-0.4-0.3-0.4-0.5c0-0.1,0-0.1,0.1-0.2l2.6-3.6l-0.1-0.3
			l-4-1.4c-0.2-0.1-0.3-0.3-0.3-0.5c0-0.1,0.1-0.2,0.1-0.2l3.4-2.8c0-0.1,0-0.2,0-0.3l-3.5-2.3c-0.2-0.1-0.3-0.4-0.1-0.6
			c0-0.1,0.1-0.1,0.2-0.2l4-1.9l0.1-0.3l-2.9-3.1c-0.2-0.2-0.2-0.5,0-0.6c0.1-0.1,0.1-0.1,0.2-0.1l4.3-0.9l0.2-0.3l-2-3.7
			c-0.1-0.2,0-0.5,0.2-0.6c0.1,0,0.2-0.1,0.2-0.1L59,63l0.2-0.2l-1.1-4.1c-0.1-0.2,0.1-0.5,0.3-0.5c0.1,0,0.2,0,0.2,0l4.2,1.2
			l0.3-0.2L63,55c0-0.2,0.2-0.4,0.4-0.4c0.1,0,0.2,0,0.2,0.1l3.8,2.2l0.3-0.1l0.9-4.1c0-0.2,0.3-0.4,0.5-0.3c0.1,0,0.2,0.1,0.2,0.1
			l3.2,3h0.3l1.9-3.8c0.1-0.2,0.4-0.3,0.6-0.2c0.1,0,0.1,0.1,0.2,0.2l2.3,3.7l0.3,0.1l2.7-3.3c0.2-0.2,0.4-0.2,0.6,0
			c0.1,0.1,0.1,0.1,0.1,0.2l1.3,4.2l0.3,0.1l3.5-2.5c0.2-0.1,0.5-0.1,0.6,0.1c0,0.1,0.1,0.1,0.1,0.2l0.3,4.4l0.2,0.2l4-1.6
			c0.2-0.1,0.5,0,0.6,0.2c0,0.1,0,0.2,0,0.2l-0.7,4.3l0.2,0.2l4.2-0.6c0.2,0,0.5,0.1,0.5,0.4c0,0.1,0,0.1,0,0.2l-1.7,4l0.1,0.3
			l4.2,0.4c0.2,0,0.4,0.2,0.4,0.5c0,0.1,0,0.2-0.1,0.2l-2.6,3.5c0,0.1,0,0.2,0.1,0.3l4,1.4c0.2,0.1,0.3,0.4,0.3,0.6
			c0,0.1-0.1,0.1-0.1,0.2l-3.4,2.8c0,0.1,0,0.2,0,0.3l3.6,2.3c0.2,0.1,0.3,0.4,0.2,0.6C101.5,79.8,101.4,79.8,101.3,79.9z"/>
		<path class="st3" d="M77.5,87.9v3.7h-3.1v-3.8c-2.4-0.4-4.7-1.5-6.4-3.2l2.6-3.2c1.5,1.5,3.5,2.4,5.7,2.5c1.6,0,2.7-0.8,2.7-2
			c0-1.4-1-2-3.7-2.8c-3.6-1.1-6.8-2.3-6.8-6.4c0-3.3,2.2-5.8,5.9-6.2v-3.9h3.1v4c2.1,0.4,4,1.3,5.7,2.6l-2.5,3.1
			c-1.4-1.1-3.1-1.7-4.9-1.8c-1.7,0-2.6,0.7-2.6,1.8s1.1,1.8,3.4,2.5c4.3,1.3,7.1,2.4,7.1,6.7C83.7,85.1,81.3,87.4,77.5,87.9z"/>
	</g>
</g>
<g id="Layer_2">
	<g id="Box_Office">
		<path class="st2" d="M96,13.7h-2.2V7c0-1.2-1-2.2-2.2-2.2H6.7c-1.2,0-2.2,1-2.2,2.2v6.7H2.2c-1.2,0-2.2,1-2.2,2.2s1,2.2,2.2,2.2
			h2.2v82.6c0,1.2,1,2.2,2.2,2.2h84.9c1.2,0,2.2-1,2.2-2.2V18.1H96c1.2,0,2.2-1,2.2-2.2S97.3,13.7,96,13.7 M53.6,98.5h-8.9V76.2h8.9
			V98.5z M89.3,98.5H58.1V74c0-1.2-1-2.2-2.2-2.2H42.4c-1.2,0-2.2,1-2.2,2.2v24.6H8.9V18.1h80.4V98.5z M89.3,13.7H8.9V9.2h80.4V13.7
			z M64.8,44.9h13.4c1.2,0,2.2-1,2.2-2.2V29.3c0-1.2-1-2.2-2.2-2.2H64.8c-1.2,0-2.2,1-2.2,2.2v13.4C62.5,43.9,63.5,44.9,64.8,44.9
			 M67,31.5h8.9v8.9H67V31.5z M20.1,44.9h13.4c1.2,0,2.2-1,2.2-2.2V29.3c0-1.2-1-2.2-2.2-2.2H20.1c-1.2,0-2.2,1-2.2,2.2v13.4
			C17.9,43.9,18.9,44.9,20.1,44.9 M22.3,31.5h8.9v8.9h-8.9V31.5z M20.1,67.3h13.4c1.2,0,2.2-1,2.2-2.2V51.6c0-1.2-1-2.2-2.2-2.2
			H20.1c-1.2,0-2.2,1-2.2,2.2V65C17.9,66.3,18.9,67.3,20.1,67.3 M22.3,53.9h8.9v8.9h-8.9V53.9z M64.8,67.3h13.4c1.2,0,2.2-1,2.2-2.2
			V51.6c0-1.2-1-2.2-2.2-2.2H64.8c-1.2,0-2.2,1-2.2,2.2V65C62.5,66.3,63.5,67.3,64.8,67.3 M67,53.9h8.9v8.9H67V53.9z M20.1,89.6
			h13.4c1.2,0,2.2-1,2.2-2.2V74c0-1.2-1-2.2-2.2-2.2H20.1c-1.2,0-2.2,1-2.2,2.2v13.4C17.9,88.6,18.9,89.6,20.1,89.6 M22.3,76.2h8.9
			v8.9h-8.9V76.2z M42.4,44.9h13.4c1.2,0,2.2-1,2.2-2.2V29.3c0-1.2-1-2.2-2.2-2.2H42.4c-1.2,0-2.2,1-2.2,2.2v13.4
			C40.2,43.9,41.2,44.9,42.4,44.9 M44.7,31.5h8.9v8.9h-8.9V31.5z M64.8,89.6h13.4c1.2,0,2.2-1,2.2-2.2V74c0-1.2-1-2.2-2.2-2.2H64.8
			c-1.2,0-2.2,1-2.2,2.2v13.4C62.5,88.6,63.5,89.6,64.8,89.6 M67,76.2h8.9v8.9H67V76.2z M42.4,67.3h13.4c1.2,0,2.2-1,2.2-2.2V51.6
			c0-1.2-1-2.2-2.2-2.2H42.4c-1.2,0-2.2,1-2.2,2.2V65C40.2,66.3,41.2,67.3,42.4,67.3 M44.7,53.9h8.9v8.9h-8.9V53.9z"/>
	</g>
</g>
<g id="Layer_3">
</g>
</svg>
