<svg xmlns="http://www.w3.org/2000/svg" viewBox="0 0 103 103"><defs><style>.cls-1,.cls-3{fill:#026cdf;}.cls-1{fill-rule:evenodd;}.cls-2{fill:#fff;}.cls-4,.cls-5{fill:none;stroke:#026cdf;stroke-linecap:round;}.cls-4{stroke-linejoin:round;stroke-width:2px;}.cls-5{stroke-miterlimit:10;stroke-width:3px;}</style></defs><title>TM1 Events Icon Set</title><g id="Credit_Card_Offer" data-name="Credit Card Offer"><path class="cls-1" d="M101.33,79.88l-4,1.88-.09.29,2.89,3.12a.44.44,0,0,1-.24.73l-4.29.87-.16.26,2.06,3.72a.44.44,0,0,1-.41.65l-4.37-.18c-.07.07-.14.15-.22.22l1.11,4.1a.44.44,0,0,1-.55.54l-4.21-1.23-.25.16.09,4.25a.44.44,0,0,1-.66.39l-3.8-2.19-.29.09-.92,4.15a.45.45,0,0,1-.74.22l-3.15-3-.31,0L77,102.71a.45.45,0,0,1-.77,0L73.86,99,73.57,99l-2.75,3.24a.45.45,0,0,1-.76-.15l-1.38-4.15-.28-.13L65,100.29a.44.44,0,0,1-.7-.32l-.35-4.37-.24-.18L59.73,97a.44.44,0,0,1-.6-.48l.71-4.32L59.65,92l-4.21.6A.43.43,0,0,1,55,92l1.72-4-.13-.27-4.23-.42a.45.45,0,0,1-.31-.71L54.67,83l-.06-.3-4-1.42a.43.43,0,0,1-.13-.75l3.39-2.77c0-.1,0-.2,0-.3l-3.55-2.34a.44.44,0,0,1,.06-.77l4-1.87.09-.29L51.56,69.1a.44.44,0,0,1,.23-.73l4.3-.87.15-.26-2.05-3.72a.44.44,0,0,1,.4-.66L59,63l.21-.21-1.1-4.11a.43.43,0,0,1,.54-.53l4.21,1.22.26-.16L63,55a.44.44,0,0,1,.66-.39l3.79,2.2.29-.1.93-4.14a.43.43,0,0,1,.73-.22l3.16,3,.3,0,1.9-3.8a.43.43,0,0,1,.76,0l2.34,3.7.3.06L80.91,52a.44.44,0,0,1,.75.14L83,56.34l.28.12L86.77,54a.44.44,0,0,1,.69.33l.35,4.36.24.19L92,57.26a.44.44,0,0,1,.6.48l-.71,4.32.19.24,4.21-.61a.45.45,0,0,1,.47.61l-1.72,4,.12.28,4.23.42a.44.44,0,0,1,.31.7l-2.64,3.5c0,.1,0,.2.06.3l4,1.42a.45.45,0,0,1,.13.76l-3.4,2.76c0,.11,0,.21,0,.31l3.55,2.34A.43.43,0,0,1,101.33,79.88Z"/><path class="cls-2" d="M77.51,87.9v3.74h-3.1v-3.8A11.66,11.66,0,0,1,68,84.6l2.62-3.16a8.42,8.42,0,0,0,5.66,2.46c1.6,0,2.69-.77,2.69-2,0-1.41-1-2-3.65-2.82-3.58-1.09-6.81-2.34-6.81-6.37,0-3.29,2.17-5.76,5.92-6.2V62.62h3.07v4a13.6,13.6,0,0,1,5.73,2.59l-2.53,3.14a8.49,8.49,0,0,0-4.9-1.79c-1.66,0-2.59.67-2.59,1.82s1.09,1.79,3.39,2.5c4.29,1.34,7.11,2.43,7.11,6.65C83.72,85.08,81.32,87.45,77.51,87.9Z"/><path class="cls-3" d="M69,12.5H11A9.51,9.51,0,0,0,1.5,22V62A9.51,9.51,0,0,0,11,71.5H50.07v-3H11A6.51,6.51,0,0,1,4.5,62V22A6.51,6.51,0,0,1,11,15.5H69A6.51,6.51,0,0,1,75.5,22V48.89c1,.06,2,.17,3,.25V22A9.51,9.51,0,0,0,69,12.5Z"/><rect class="cls-4" x="15" y="41" width="14" height="7"/><line class="cls-4" x1="33" y1="47" x2="53" y2="47"/><rect class="cls-5" x="3.5" y="26.5" width="73" height="8"/><line class="cls-4" x1="33" y1="42" x2="68" y2="42"/></g></svg>