<svg xmlns="http://www.w3.org/2000/svg" viewBox="0 0 103 103"><defs><style>.cls-1,.cls-2{fill:#026cdf;}.cls-2{fill-rule:evenodd;}.cls-3{fill:#fff;}</style></defs><title>TM1 Events Icon Set</title><g id="Partnership_Offer" data-name="Partnership Offer"><path class="cls-1" d="M49.34,70.26a70.53,70.53,0,0,0,4.49-5.83l0,0c-.54-.48-3.28-2.67-4-2.5a2.13,2.13,0,0,0-1.52,1.36c-.09.22-.27.74-2.3.74a12.5,12.5,0,0,1-5.31-1.81c-1.52-1-11.06-8.12-19.29-15-1.16-1-3.16-3.06-4.93-4.91-1.57-1.64-3-3.12-3.74-3.75a2.17,2.17,0,1,0-2.8,3.31c.67.57,2,1.94,3.41,3.44,1.93,2,3.93,4.11,5.27,5.23,8.07,6.76,17.77,14,19.7,15.32A16.58,16.58,0,0,0,46,68.34C46.47,68.34,48.91,70.31,49.34,70.26Z"/><path class="cls-1" d="M30.15,33.21c4.91,1.63,9.39.07,12.73-4.35a11.17,11.17,0,0,0,3.25-1c.41-.18.88-.39,1.52-.65,2.48,2.33,5.82,5,9.34,7.89,6.37,5.15,13.6,11,15.22,14.37a3.16,3.16,0,0,1,.22.57h4.38a7.58,7.58,0,0,0-.69-2.44c-2-4.26-9.35-10.16-16.4-15.87-3.94-3.18-7.65-6.19-10-8.56a2.18,2.18,0,0,0-2.27-.51c-1.46.53-2.36.94-3.07,1.26a7.13,7.13,0,0,1-2.9.79,2.21,2.21,0,0,0-1.6,1c-3.06,4.57-6.23,4.18-8.35,3.47-.68-.22-.8-.51-.86-.79-.46-1.9,1.83-6.33,4.79-9.29,7-7,10.67-8.81,18.34-5.38,8.7,3.89,17.42,6.93,17.51,7a2.16,2.16,0,1,0,1.42-4.09c-.09,0-8.63-3-17.16-6.83C45.61,5.23,40.16,8.16,32.38,16c-3,3-7,9-6,13.36A5.33,5.33,0,0,0,30.15,33.21Z"/><path class="cls-1" d="M36.58,12H18.74a2.12,2.12,0,0,0-2.14,1.71,2,2,0,0,0,2,2.29H36.43a2.1,2.1,0,0,0,2.13-1.71A2,2,0,0,0,36.58,12Z"/><path class="cls-1" d="M81.8,46a2.22,2.22,0,0,0,.92-2.57,2.17,2.17,0,0,0-3.26-1.07l-6,4a2.62,2.62,0,0,0-1.2,2,1.87,1.87,0,0,0,.64,1.6h3Z"/><path class="cls-1" d="M65.07,55c1-1,2-2.06,3-3.17-2.83-2.8-8.91-8-11.79-11a2.16,2.16,0,1,0-3.13,3C53.91,44.69,61.3,51.29,65.07,55Z"/><path class="cls-1" d="M59.06,56.85c-3-2.78-8-8.09-9.29-9.47a2.17,2.17,0,0,0-3.2,2.93c.07.07,5.71,6.16,9.37,9.56A24.74,24.74,0,0,1,59.06,56.85Z"/><path class="cls-1" d="M50.94,67.67a2.44,2.44,0,0,0,.33.23q1.33-1.7,2.55-3.46a.76.76,0,0,0-.09-.09C50.64,61.75,42.32,53,41.09,51.7a2.17,2.17,0,1,0-3.17,3C39.7,56.56,47.74,65,50.94,67.67Z"/><path class="cls-1" d="M19.32,8.59C15.61,5.08.76,3.94-3.7,3.67a2.12,2.12,0,0,0-1.62.59A2.16,2.16,0,0,0-6,5.83v39A2.17,2.17,0,0,0-3.83,47h13a2.18,2.18,0,0,0,2.06-1.49c.31-1,7.78-23.89,8.76-35.16A2.12,2.12,0,0,0,19.32,8.59Z"/><path class="cls-1" d="M7.25,42H-2V7.49C5,8,12.48,9.24,15.21,10.56,14.06,20.05,8.86,36.91,7.25,42Z"/><path class="cls-1" d="M98,9.83a2.17,2.17,0,0,0-2.18-2.16C78.81,7.67,69.38,12,69,12.2a2.17,2.17,0,0,0-.92,3.11c2.68,4.31,11.06,28.26,12.67,34.1A2.17,2.17,0,0,0,82.83,51h13A2.17,2.17,0,0,0,98,48.83Z"/><path class="cls-1" d="M94,47H84.79c-2.06-6.69-8.12-24.14-11.51-31.35A70.63,70.63,0,0,1,94,12.36Z"/><path class="cls-2" d="M101.33,79.88l-4,1.88-.09.29,2.89,3.12a.44.44,0,0,1-.24.73l-4.29.87-.16.26,2.06,3.72a.44.44,0,0,1-.41.65l-4.37-.18c-.07.07-.14.15-.22.22l1.11,4.1a.44.44,0,0,1-.55.54l-4.21-1.23-.25.16.09,4.25a.44.44,0,0,1-.66.39l-3.8-2.19-.29.09-.92,4.15a.45.45,0,0,1-.74.22l-3.15-3-.31,0L77,102.71a.45.45,0,0,1-.77,0L73.86,99,73.57,99l-2.75,3.24a.45.45,0,0,1-.76-.15l-1.38-4.15-.28-.13L65,100.29a.44.44,0,0,1-.7-.32l-.35-4.37-.24-.18L59.73,97a.44.44,0,0,1-.6-.48l.71-4.32L59.65,92l-4.21.6A.43.43,0,0,1,55,92l1.72-4-.13-.27-4.23-.42a.45.45,0,0,1-.31-.71L54.67,83l-.06-.3-4-1.42a.43.43,0,0,1-.13-.75l3.39-2.77c0-.1,0-.2,0-.3l-3.55-2.34a.44.44,0,0,1,.06-.77l4-1.87.09-.29L51.56,69.1a.44.44,0,0,1,.23-.73l4.3-.87.15-.26-2.05-3.72a.44.44,0,0,1,.4-.66L59,63l.21-.21-1.1-4.11a.43.43,0,0,1,.54-.53l4.21,1.22.26-.16L63,55a.44.44,0,0,1,.66-.39l3.79,2.2.29-.1.93-4.14a.43.43,0,0,1,.73-.22l3.16,3,.3,0,1.9-3.8a.43.43,0,0,1,.76,0l2.34,3.7.3.06L80.91,52a.44.44,0,0,1,.75.14L83,56.34l.28.12L86.77,54a.44.44,0,0,1,.69.33l.35,4.36.24.19L92,57.26a.44.44,0,0,1,.6.48l-.71,4.32.19.24,4.21-.61a.45.45,0,0,1,.47.61l-1.72,4,.12.28,4.23.42a.44.44,0,0,1,.31.7l-2.64,3.5c0,.1,0,.2.06.3l4,1.42a.45.45,0,0,1,.13.76l-3.4,2.76c0,.11,0,.21,0,.31l3.55,2.34A.43.43,0,0,1,101.33,79.88Z"/><path class="cls-3" d="M77.51,87.9v3.74h-3.1v-3.8A11.66,11.66,0,0,1,68,84.6l2.62-3.16a8.42,8.42,0,0,0,5.66,2.46c1.6,0,2.69-.77,2.69-2,0-1.41-1-2-3.65-2.82-3.58-1.09-6.81-2.34-6.81-6.37,0-3.29,2.17-5.76,5.92-6.2V62.62h3.07v4a13.6,13.6,0,0,1,5.73,2.59l-2.53,3.14a8.49,8.49,0,0,0-4.9-1.79c-1.66,0-2.59.67-2.59,1.82s1.09,1.79,3.39,2.5c4.29,1.34,7.11,2.43,7.11,6.65C83.72,85.08,81.32,87.45,77.51,87.9Z"/></g></svg>