<svg xmlns="http://www.w3.org/2000/svg" viewBox="0 0 103 103"><defs><style>.cls-1{fill:#026cdf;fill-rule:evenodd;}.cls-2{fill:#fff;}</style></defs><title>TM1 Events Icon Set</title><g id="Complimentary_Offer" data-name="Complimentary Offer"><path class="cls-1" d="M46.6,34.26H54a59,59,0,0,0,7.4,7.83,2,2,0,0,0,1.82.4,1.94,1.94,0,0,0,1-.65A2,2,0,0,0,64,39a54.58,54.58,0,0,1-4.65-4.71H81V50.64H85.1V34.26a4.07,4.07,0,0,0,4.05-4.07V22A4.07,4.07,0,0,0,85.1,18H69.64a11.61,11.61,0,0,0-.19-10.7C66.1,1.42,57.88-.13,51.09,3.81a15.6,15.6,0,0,0-5.84,6,1.51,1.51,0,0,0-.18-.09s-.08,0-.14,0l-.33,0-.29,0c-.1,0-.19,0-.3,0a1.63,1.63,0,0,0-.19.09,15.57,15.57,0,0,0-5.83-6C31.21-.13,23,1.42,19.63,7.26A11.61,11.61,0,0,0,19.44,18H4.05A4.07,4.07,0,0,0,0,22v8.15a4.07,4.07,0,0,0,4.05,4.07v44.8a4.07,4.07,0,0,0,4.06,4.08H50.82V79.06H46.6V58.7H60.89V55.07L46.6,54.62ZM85.1,22v8.15h-29A62.77,62.77,0,0,1,50.84,22Zm-32-14.7C58,4.53,63.71,5.4,66,9.3c1.5,2.62,1,5.91-.92,8.66H48.89c-.44-1-.84-2-1.22-3.1A10.79,10.79,0,0,1,53.12,7.34ZM46.6,22.68A65,65,0,0,0,51,30.19H46.6ZM23.14,9.3c2.23-3.88,8-4.77,12.83-2a10.86,10.86,0,0,1,5.45,7.52c-.37,1.07-.79,2.1-1.23,3.1H24.06C22.13,15.21,21.63,11.92,23.14,9.3ZM4.05,30.19V22H38.24A62.76,62.76,0,0,1,33,30.19ZM42.54,79.06H8.11V58.7H42.54Zm0-24.44H8.11V34.26H29.73A58.33,58.33,0,0,1,25.08,39a2,2,0,0,0-.27,2.87,1.94,1.94,0,0,0,1,.65,2,2,0,0,0,1.82-.4,59,59,0,0,0,7.4-7.83h7.48Zm0-24.43H38.07a64.22,64.22,0,0,0,4.47-7.63Z"/><path class="cls-1" d="M101.33,79.88l-4,1.88-.09.29,2.89,3.12a.44.44,0,0,1-.24.73l-4.29.87-.16.26,2.06,3.72a.44.44,0,0,1-.41.65l-4.37-.18c-.07.07-.14.15-.22.22l1.11,4.1a.44.44,0,0,1-.55.54l-4.21-1.23-.25.16.09,4.25a.44.44,0,0,1-.66.39l-3.8-2.19-.29.09-.92,4.15a.45.45,0,0,1-.74.22l-3.15-3-.31,0L77,102.71a.45.45,0,0,1-.77,0L73.86,99,73.57,99l-2.75,3.24a.45.45,0,0,1-.76-.15l-1.38-4.15-.28-.13L65,100.29a.44.44,0,0,1-.7-.32l-.35-4.37-.24-.18L59.73,97a.44.44,0,0,1-.6-.48l.71-4.32L59.65,92l-4.21.6A.43.43,0,0,1,55,92l1.72-4-.13-.27-4.23-.42a.45.45,0,0,1-.31-.71L54.67,83l-.06-.3-4-1.42a.43.43,0,0,1-.13-.75l3.39-2.77c0-.1,0-.2,0-.3l-3.55-2.34a.44.44,0,0,1,.06-.77l4-1.87.09-.29L51.56,69.1a.44.44,0,0,1,.23-.73l4.3-.87.15-.26-2.05-3.72a.44.44,0,0,1,.4-.66L59,63l.21-.21-1.1-4.11a.43.43,0,0,1,.54-.53l4.21,1.22.26-.16L63,55a.44.44,0,0,1,.66-.39l3.79,2.2.29-.1.93-4.14a.43.43,0,0,1,.73-.22l3.16,3,.3,0,1.9-3.8a.43.43,0,0,1,.76,0l2.34,3.7.3.06L80.91,52a.44.44,0,0,1,.75.14L83,56.34l.28.12L86.77,54a.44.44,0,0,1,.69.33l.35,4.36.24.19L92,57.26a.44.44,0,0,1,.6.48l-.71,4.32.19.24,4.21-.61a.45.45,0,0,1,.47.61l-1.72,4,.12.28,4.23.42a.44.44,0,0,1,.31.7l-2.64,3.5c0,.1,0,.2.06.3l4,1.42a.45.45,0,0,1,.13.76l-3.4,2.76c0,.11,0,.21,0,.31l3.55,2.34A.43.43,0,0,1,101.33,79.88Z"/><path class="cls-2" d="M77.51,87.9v3.74h-3.1v-3.8A11.66,11.66,0,0,1,68,84.6l2.62-3.16a8.42,8.42,0,0,0,5.66,2.46c1.6,0,2.69-.77,2.69-2,0-1.41-1-2-3.65-2.82-3.58-1.09-6.81-2.34-6.81-6.37,0-3.29,2.17-5.76,5.92-6.2V62.62h3.07v4a13.6,13.6,0,0,1,5.73,2.59l-2.53,3.14a8.49,8.49,0,0,0-4.9-1.79c-1.66,0-2.59.67-2.59,1.82s1.09,1.79,3.39,2.5c4.29,1.34,7.11,2.43,7.11,6.65C83.72,85.08,81.32,87.45,77.51,87.9Z"/></g></svg>