<svg xmlns="http://www.w3.org/2000/svg" viewBox="0 0 103 103"><defs><style>.cls-1{fill:#026cdf;fill-rule:evenodd;}</style></defs><title>TM1 Events Icon Set V2</title><g id="ToolbarAssist"><path class="cls-1" d="M39.35,38.54A4.58,4.58,0,1,1,34.78,34,4.57,4.57,0,0,1,39.35,38.54Zm-4.57,8.84A4.58,4.58,0,1,0,39.35,52,4.58,4.58,0,0,0,34.78,47.38Zm0,13.41a4.58,4.58,0,1,0,4.57,4.57A4.58,4.58,0,0,0,34.78,60.79ZM53.33,29.7a4.58,4.58,0,1,0-4.58-4.57A4.58,4.58,0,0,0,53.33,29.7Zm0,13.41a4.57,4.57,0,1,0-4.58-4.57A4.57,4.57,0,0,0,53.33,43.11Zm0,13.42A4.58,4.58,0,1,0,48.75,52,4.58,4.58,0,0,0,53.33,56.53Zm0,13.41a4.58,4.58,0,1,0-4.58-4.58A4.58,4.58,0,0,0,53.33,69.94ZM71.88,20.55a4.58,4.58,0,1,0,4.57,4.58A4.58,4.58,0,0,0,71.88,20.55Zm0,13.42a4.57,4.57,0,1,0,4.57,4.57A4.57,4.57,0,0,0,71.88,34Zm0,13.41A4.58,4.58,0,1,0,76.45,52,4.58,4.58,0,0,0,71.88,47.38Zm0,13.41a4.58,4.58,0,1,0,4.57,4.57A4.58,4.58,0,0,0,71.88,60.79Zm0,13.41a4.58,4.58,0,1,0,4.57,4.58A4.58,4.58,0,0,0,71.88,74.2ZM10.25,31.61H2.88V67.78h7.37a8,8,0,0,0,8-8V39.61A8,8,0,0,0,10.25,31.61ZM90.43,29.7a4.58,4.58,0,1,0-4.58-4.57A4.58,4.58,0,0,0,90.43,29.7Zm0,4.27A4.57,4.57,0,1,0,95,38.54,4.57,4.57,0,0,0,90.43,34Zm0,13.41A4.58,4.58,0,1,0,95,52,4.58,4.58,0,0,0,90.43,47.38Zm0,13.41A4.58,4.58,0,1,0,95,65.36,4.58,4.58,0,0,0,90.43,60.79Zm0,13.41A4.58,4.58,0,1,0,95,78.78,4.58,4.58,0,0,0,90.43,74.2Zm-24.65-5-22.5,7.5A1.24,1.24,0,0,0,43,78.87l5.72,3.81a1.23,1.23,0,0,1,.19,1.9l-7.11,7.11a1.24,1.24,0,0,0,0,1.75l1.28,1.28a1.24,1.24,0,0,0,1.75,0l7.1-7.11a1.24,1.24,0,0,1,1.91.19l3.81,5.72a1.24,1.24,0,0,0,2.21-.3l7.5-22.49A1.24,1.24,0,0,0,65.78,69.16Z"/></g></svg>