<svg xmlns="http://www.w3.org/2000/svg" viewBox="0 0 103 103"><defs><style>.cls-1{fill:#026cdf;}</style></defs><title>AccessibleSeating</title><g id="Accessible_Seating" data-name="Accessible Seating"><path class="cls-1" d="M100.5,52.57V39.65A12.16,12.16,0,0,0,88.35,27.5h-3.7A12.16,12.16,0,0,0,72.5,39.65V52.57a2.58,2.58,0,0,0-2,2.51V56.5h-3V55.08a2.58,2.58,0,0,0-2-2.51V39.65A12.16,12.16,0,0,0,53.35,27.5h-3.7A12.16,12.16,0,0,0,37.5,39.65V52.57a2.58,2.58,0,0,0-2,2.51V56.5h-3V55.08a2.58,2.58,0,0,0-2-2.51V39.65A12.16,12.16,0,0,0,18.35,27.5h-3.7A12.16,12.16,0,0,0,2.5,39.65V52.57a2.58,2.58,0,0,0-2,2.51v5.59A4.84,4.84,0,0,0,5.33,65.5H15v7H3.88a1.5,1.5,0,1,0,0,3H99a1.5,1.5,0,0,0,0-3H88v-7h9.67a4.84,4.84,0,0,0,4.83-4.83V55.08A2.58,2.58,0,0,0,100.5,52.57Zm-25-12.92a9.16,9.16,0,0,1,9.15-9.15h3.7a9.16,9.16,0,0,1,9.15,9.15V52.5h-22ZM40.33,62.5a1.83,1.83,0,0,1-1.83-1.83V55.5h26v5.17a1.83,1.83,0,0,1-1.83,1.83Zm.17-22.85a9.16,9.16,0,0,1,9.15-9.15h3.7a9.16,9.16,0,0,1,9.15,9.15V52.5h-22Zm-35,0a9.16,9.16,0,0,1,9.15-9.15h3.7a9.16,9.16,0,0,1,9.15,9.15V52.5H5.5Zm-2,21V55.5h26v5.17a1.83,1.83,0,0,1-1.83,1.83H5.33A1.83,1.83,0,0,1,3.5,60.67ZM18,65.5h9.67a4.84,4.84,0,0,0,4.83-4.83V59.5h3v1.17a4.84,4.84,0,0,0,4.83,4.83H50v7H18Zm67,7H53v-7h9.67a4.84,4.84,0,0,0,4.83-4.83V59.5h3v1.17a4.84,4.84,0,0,0,4.83,4.83H85ZM99.5,60.67a1.83,1.83,0,0,1-1.83,1.83H75.33a1.83,1.83,0,0,1-1.83-1.83V55.5h26Zm-81.34-16L19,46.32a4.55,4.55,0,0,1-1.68,2.32,4.6,4.6,0,0,1-5,.26,4.61,4.61,0,0,1-1.67-1.67A4.59,4.59,0,0,1,13,40.61l.14,1A3.57,3.57,0,0,0,11,44.93,3.58,3.58,0,0,0,14.6,48.5,3.43,3.43,0,0,0,16.45,48a3.49,3.49,0,0,0,1.32-1.4A3.42,3.42,0,0,0,18.16,44.69Zm4.38.8L21,46.28l-1.82-3.63a.48.48,0,0,0-.46-.28H15.05l-.13-1h3.25v-1H14.8L14.5,38a1.17,1.17,0,0,0,1-.33,1.27,1.27,0,0,0-.86-2.21,1.27,1.27,0,0,0-.78.25,1.16,1.16,0,0,0-.45.66.91.91,0,0,0,0,.33l.77,6.22a.46.46,0,0,0,.17.32.48.48,0,0,0,.34.13h3.76l1.91,3.81a.5.5,0,0,0,.69.22l2-1Zm30.23,1.09A3.49,3.49,0,0,1,51.45,48a3.58,3.58,0,0,1-5.43-3,3.57,3.57,0,0,1,2.14-3.28l-.14-1a4.59,4.59,0,0,0-2.4,6.62,4.61,4.61,0,0,0,1.67,1.67,4.6,4.6,0,0,0,5-.26A4.55,4.55,0,0,0,54,46.32l-.82-1.63A3.42,3.42,0,0,1,52.77,46.58Zm4.77-1.09L56,46.28l-1.82-3.63a.48.48,0,0,0-.46-.28H50.05l-.13-1h3.25v-1H49.8L49.5,38a1.17,1.17,0,0,0,1-.33,1.27,1.27,0,0,0-.86-2.21,1.27,1.27,0,0,0-.78.25,1.16,1.16,0,0,0-.45.66.91.91,0,0,0,0,.33l.77,6.22a.46.46,0,0,0,.17.32.48.48,0,0,0,.34.13h3.76l1.91,3.81a.5.5,0,0,0,.69.22l2-1Zm30.23,1.09A3.49,3.49,0,0,1,86.45,48a3.58,3.58,0,0,1-5.43-3,3.57,3.57,0,0,1,2.14-3.28l-.14-1a4.59,4.59,0,0,0-2.4,6.62,4.61,4.61,0,0,0,1.67,1.67,4.6,4.6,0,0,0,5-.26A4.55,4.55,0,0,0,89,46.32l-.82-1.63A3.42,3.42,0,0,1,87.77,46.58Zm4.77-1.09L91,46.28l-1.82-3.63a.48.48,0,0,0-.46-.28H85.05l-.13-1h3.25v-1H84.8L84.5,38a1.17,1.17,0,0,0,1-.33,1.27,1.27,0,0,0-.86-2.21,1.27,1.27,0,0,0-.78.25,1.16,1.16,0,0,0-.45.66.91.91,0,0,0-.05.33l.77,6.22a.46.46,0,0,0,.17.32.48.48,0,0,0,.34.13h3.76l1.91,3.81a.5.5,0,0,0,.69.22l2-1Z"/></g></svg>