<svg xmlns="http://www.w3.org/2000/svg" viewBox="0 0 108.31 101.74"><defs><style>.cls-1{fill:#267cdf;}.cls-2{fill:none;stroke-width:4px;}.cls-2,.cls-3{stroke:#267cdf;stroke-miterlimit:10;}.cls-3,.cls-4{fill:#fff;}.cls-4{font-size:16.82px;font-family:Arial-Black, Arial Black;font-weight:800;}.cls-5{fill:#026cdf;}</style></defs><title>Asset 3</title><g id="Layer_2" data-name="Layer 2"><g id="Layer_2-2" data-name="Layer 2"><path class="cls-1" d="M54.15,101.74H0C0,96.5,24.45,92.2,54.15,92.2s54.16,4.3,54.16,9.54Z"/><rect class="cls-1" x="24.27" y="66.14" width="60.98" height="17.39" rx="7.25"/><rect class="cls-1" x="27.6" y="75" width="8.67" height="16.51" rx="2.34"/><rect class="cls-1" x="71.64" y="75.27" width="8.67" height="16.51" rx="2.34"/><path class="cls-2" d="M41.92,49.53l24.67-.13A6.67,6.67,0,0,1,73,54l7.48,23.25c.88,2.75-1.82-1.88-4.15-.18L54.15,74.83c-2.33,1.7,2.34,1.69,0,0l-22.21,4.1c-2.37-1.71-5,1.37-4.08-1.4l7.75-23.42A6.68,6.68,0,0,1,41.92,49.53Z"/><rect class="cls-1" x="90.87" y="20.83" width="4.3" height="67.88" rx="0.78"/><circle class="cls-1" cx="93.02" cy="14.1" r="14.1"/><circle class="cls-3" cx="29.64" cy="74.83" r="2.94"/><circle class="cls-3" cx="35.29" cy="74.83" r="2.94"/><circle class="cls-3" cx="78.93" cy="75" r="2.94"/><circle class="cls-3" cx="73.04" cy="75" r="2.94"/><text class="cls-4" transform="translate(88.13 20.34)">P</text><rect class="cls-5" x="50.91" y="51.49" width="7.69" height="2.49"/></g></g></svg>