<svg xmlns="http://www.w3.org/2000/svg" viewBox="0 0 103 103"><defs><style>.cls-1{fill:#026cdf;fill-rule:evenodd;}</style></defs><title>TM1 Events Icon Set V2</title><g id="Offer_Price" data-name="Offer Price"><path class="cls-1" d="M102.34,57l-9.7,9.7a2.32,2.32,0,0,1-3.27,0l-9.92-9.92a2.29,2.29,0,1,1,3.24-3.23l5.92,5.93-.22-20.58a2.24,2.24,0,0,1,.66-1.63,2.32,2.32,0,0,1,3.27,0A2.38,2.38,0,0,1,93,38.89l.23,20.58L99,53.67A2.34,2.34,0,0,1,102.34,57ZM13.88,37.22a2.31,2.31,0,0,0-3.27,0L.7,47.17A2.28,2.28,0,1,0,3.93,50.4l5.93-5.92L9.63,65.05a2.24,2.24,0,0,0,.66,1.63,2.35,2.35,0,0,0,4-1.68l.23-20.58,5.8,5.8a2.33,2.33,0,0,0,3.3-3.3ZM71.79,53.08a.35.35,0,0,1,0,.61L68.6,55.18c0,.07,0,.15-.07.23l2.29,2.48a.35.35,0,0,1-.18.58l-3.42.69-.12.21,1.63,3a.35.35,0,0,1-.32.52l-3.48-.15-.17.17.88,3.27a.34.34,0,0,1-.43.42l-3.35-1-.2.13.07,3.38a.36.36,0,0,1-.53.31l-3-1.75-.23.07L57.22,71a.35.35,0,0,1-.58.18l-2.51-2.42-.24,0-1.51,3a.35.35,0,0,1-.61,0l-1.86-2.94-.24,0-2.18,2.57a.35.35,0,0,1-.6-.11L45.79,68l-.22-.1-2.74,2a.35.35,0,0,1-.55-.25L42,66.19,41.81,66,38.68,67.3a.35.35,0,0,1-.48-.38l.56-3.43-.15-.19-3.34.47a.35.35,0,0,1-.38-.48l1.37-3.2c0-.08-.07-.15-.1-.22l-3.36-.34a.35.35,0,0,1-.24-.56l2.09-2.78c0-.08,0-.16,0-.24l-3.19-1.13a.35.35,0,0,1-.1-.6L34,52a1.93,1.93,0,0,1,0-.24l-2.82-1.86a.35.35,0,0,1,0-.61l3.15-1.49c0-.07,0-.15.07-.23l-2.29-2.48a.35.35,0,0,1,.18-.58l3.42-.69.12-.21-1.63-3a.34.34,0,0,1,.32-.51l3.48.14a1.37,1.37,0,0,1,.17-.17l-.88-3.27a.34.34,0,0,1,.43-.42l3.35,1,.2-.13-.07-3.37a.35.35,0,0,1,.53-.31l3,1.74.23-.07.74-3.3a.35.35,0,0,1,.58-.18l2.51,2.42.24,0,1.51-3a.35.35,0,0,1,.61,0l1.86,2.94.24,0,2.18-2.57a.35.35,0,0,1,.6.11L57.21,35l.22.1,2.74-2a.35.35,0,0,1,.55.25L61,36.81l.19.15,3.13-1.26a.35.35,0,0,1,.48.38l-.56,3.44.15.18,3.34-.47a.35.35,0,0,1,.38.48l-1.37,3.2c0,.08.07.15.1.22l3.36.34a.35.35,0,0,1,.24.56l-2.09,2.78c0,.08,0,.16,0,.24l3.19,1.13a.35.35,0,0,1,.1.6L69,51a1.93,1.93,0,0,1,0,.24ZM57.75,55c0-3.35-2.24-4.22-5.65-5.29-1.83-.56-2.7-1-2.7-2s.74-1.45,2.06-1.45a6.71,6.71,0,0,1,3.89,1.42l2-2.49a10.54,10.54,0,0,0-4.55-2.06V40H50.37v3.11c-3,.35-4.71,2.31-4.71,4.93,0,3.21,2.57,4.2,5.42,5.06,2.09.64,2.9,1.12,2.9,2.24s-.86,1.58-2.14,1.58a6.63,6.63,0,0,1-4.5-2l-2.09,2.52A9.33,9.33,0,0,0,50.34,60v3h2.47v-3C55.84,59.7,57.75,57.82,57.75,55Z"/></g></svg>