<svg xmlns="http://www.w3.org/2000/svg" viewBox="0 0 103 103"><defs><style>.cls-1,.cls-2,.cls-3{fill:none;stroke:#026cdf;stroke-linecap:round;stroke-linejoin:round;stroke-width:2px;}.cls-2{stroke-dasharray:5.07 8.11;}.cls-3{stroke-dasharray:4.76 7.61;}.cls-4{fill:#026cdf;}</style></defs><title>SeatStatus</title><g id="Seat_Status" data-name="Seat Status"><line class="cls-1" x1="74" y1="55" x2="74" y2="52.5"/><path class="cls-2" d="M74,44.39V40.65A10.68,10.68,0,0,1,84.65,30h3.7A10.68,10.68,0,0,1,99,40.65v7.79"/><line class="cls-1" x1="99" y1="52.5" x2="99" y2="55"/><path class="cls-3" d="M101,61.67V56.08A1.09,1.09,0,0,0,99.92,55H73.08A1.09,1.09,0,0,0,72,56.08v5.59A3.34,3.34,0,0,0,75.33,65H97.67A3.34,3.34,0,0,0,101,61.67Z"/><path class="cls-4" d="M99,72.5H88V68a1.5,1.5,0,0,0-3,0v4.5H18v-7h9.67a4.84,4.84,0,0,0,4.83-4.83V55.08a2.58,2.58,0,0,0-2-2.51V39.65A12.16,12.16,0,0,0,18.35,27.5h-3.7A12.16,12.16,0,0,0,2.5,39.65V52.57a2.58,2.58,0,0,0-2,2.51v5.59A4.84,4.84,0,0,0,5.33,65.5H15v7H3a1.5,1.5,0,0,0,0,3H99a1.5,1.5,0,0,0,0-3Zm-84.35-42h3.7a9.16,9.16,0,0,1,9.15,9.15V52.5H5.5V39.65A9.16,9.16,0,0,1,14.65,30.5ZM3.5,60.67V55.5h26v5.17a1.83,1.83,0,0,1-1.83,1.83H5.33A1.83,1.83,0,0,1,3.5,60.67ZM66.27,47a2.3,2.3,0,0,1,0,3.26L56.6,60a2.33,2.33,0,0,1-3.3-3.3l5.8-5.8-20.58-.22a2.35,2.35,0,0,1-1.64-.7,2.32,2.32,0,0,1,0-3.27A2.28,2.28,0,0,1,38.47,46L59,46.25l-5.92-5.93a2.28,2.28,0,1,1,3.23-3.23L66.27,47"/></g></svg>