<svg xmlns="http://www.w3.org/2000/svg" viewBox="0 0 103 103"><defs><style>.cls-1{fill:#026cdf;}</style></defs><title>TM1 Events Icon Set V2</title><g id="Seats_Price" data-name="Seats Price"><path class="cls-1" d="M100.5,52.57V39.65A12.16,12.16,0,0,0,88.35,27.5h-3.7A12.16,12.16,0,0,0,72.5,39.65V52.57a2.58,2.58,0,0,0-2,2.51v5.59a4.84,4.84,0,0,0,4.83,4.83H85v7H18v-7h9.67a4.84,4.84,0,0,0,4.83-4.83V55.08a2.58,2.58,0,0,0-2-2.51V39.65A12.16,12.16,0,0,0,18.35,27.5h-3.7A12.16,12.16,0,0,0,2.5,39.65V52.57a2.58,2.58,0,0,0-2,2.51v5.59A4.84,4.84,0,0,0,5.33,65.5H15v7H3a1.5,1.5,0,0,0,0,3H99a1.5,1.5,0,0,0,0-3H88v-7h9.67a4.84,4.84,0,0,0,4.83-4.83V55.08A2.58,2.58,0,0,0,100.5,52.57ZM5.5,39.65a9.15,9.15,0,0,1,9.15-9.15h3.7a9.15,9.15,0,0,1,9.15,9.15V52.5H5.5ZM5.33,62.5A1.83,1.83,0,0,1,3.5,60.67V55.5h26v5.17a1.83,1.83,0,0,1-1.83,1.83ZM75.5,39.65a9.17,9.17,0,0,1,1.12-4.38L76.78,40a1,1,0,0,0,.29.68l8.12,8.12a1,1,0,0,0,.71.29,1,1,0,0,0,.71-.29l7.62-7.63a1,1,0,0,0,0-1.41l-8.12-8.12a1,1,0,0,0-.73-.3l-4.72.08a9.07,9.07,0,0,1,4-.93h3.7a9.16,9.16,0,0,1,9.15,9.15V52.5h-22Zm3.06-6.19,6.43-.1,7.12,7.12L85.9,46.69l-7.14-7.14ZM99.5,60.67a1.83,1.83,0,0,1-1.83,1.83H75.33a1.83,1.83,0,0,1-1.83-1.83V55.5h26ZM36.88,50a2.32,2.32,0,0,1,0-3.27A2.28,2.28,0,0,1,38.47,46L59,46.25l-5.92-5.93a2.28,2.28,0,1,1,3.23-3.23L66.27,47a2.3,2.3,0,0,1,0,3.26L56.6,60a2.33,2.33,0,0,1-3.3-3.3l5.8-5.8-20.58-.22A2.35,2.35,0,0,1,36.88,50ZM80.5,34.12a1.38,1.38,0,1,0,1.38,1.38A1.38,1.38,0,0,0,80.5,34.12Zm0,2a.62.62,0,1,1,.62-.62A.62.62,0,0,1,80.5,36.12Zm6.84,6.38a3.27,3.27,0,0,1-1.92.63L85.32,42a2.39,2.39,0,0,0,1.61-.64c.32-.32.38-.69.14-.93s-.6-.2-1.28.17c-.93.49-1.82.89-2.62.09a1.72,1.72,0,0,1-.06-2.42l-.78-.77.61-.61.81.8a3.59,3.59,0,0,1,1.65-.62l.12,1.12a2.43,2.43,0,0,0-1.33.62c-.33.33-.38.65-.15.88s.57.14,1.17-.18c1.12-.59,1.89-.93,2.73-.09a1.76,1.76,0,0,1,0,2.49l.74.75-.61.62Z"/></g></svg>