<svg xmlns="http://www.w3.org/2000/svg" viewBox="0 0 103 103"><defs><style>.cls-1{fill:#026cdf;fill-rule:evenodd;}</style></defs><title>TM1 Events Icon Set</title><g id="Holds"><path class="cls-1" d="M63.77,39.07H39.23a4.12,4.12,0,0,0-4.09,4.14v4.15a4.12,4.12,0,0,0,4.09,4.14H63.77a4.12,4.12,0,0,0,4.09-4.14V43.21A4.12,4.12,0,0,0,63.77,39.07Zm0,8.29H39.23V43.21H63.77Z"/><path class="cls-1" d="M63.77,39.07H39.23a4.12,4.12,0,0,0-4.09,4.14v4.15a4.12,4.12,0,0,0,4.09,4.14H63.77a4.12,4.12,0,0,0,4.09-4.14V43.21A4.12,4.12,0,0,0,63.77,39.07Zm0,8.29H39.23V43.21H63.77Z"/><path class="cls-1" d="M63.77,39.07H39.23a4.12,4.12,0,0,0-4.09,4.14v4.15a4.12,4.12,0,0,0,4.09,4.14H63.77a4.12,4.12,0,0,0,4.09-4.14V43.21A4.12,4.12,0,0,0,63.77,39.07Zm0,8.29H39.23V43.21H63.77Z"/><path class="cls-1" d="M92.41,14.21H10.59A4.12,4.12,0,0,0,6.5,18.36v8.28a4.12,4.12,0,0,0,4.09,4.15h4.09V84.64a4.12,4.12,0,0,0,4.09,4.15h55.1a12.81,12.81,0,0,1-1.06-4.15h-54V30.79H84.23v39.8a12.79,12.79,0,0,1,1.52-.09,13.57,13.57,0,0,1,2.57.25v-40h4.09a4.12,4.12,0,0,0,4.09-4.15V18.36A4.12,4.12,0,0,0,92.41,14.21Zm0,12.43H10.59V18.36H92.41ZM85.75,70.5a13,13,0,1,0,13,13A13,13,0,0,0,85.75,70.5Zm0,23a10,10,0,1,1,10-10A10,10,0,0,1,85.75,93.5Zm8-10a1,1,0,0,1-1,1h-6v6a1,1,0,0,1-2,0v-6h-6a1,1,0,0,1,0-2h6v-6a1,1,0,0,1,2,0v6h6A1,1,0,0,1,93.75,83.5Z"/></g></svg>