<svg id="Layer_1" data-name="Layer 1" xmlns="http://www.w3.org/2000/svg" viewBox="0 0 93 93"><defs><style>.cls-1{fill:#026cdf;fill-rule:evenodd;}</style></defs><title>3.6DayofShowOffer</title><path class="cls-1" d="M88.79,12H80.34V5.61a2.11,2.11,0,1,0-4.22,0V12H25.38V5.61a2.11,2.11,0,1,0-4.22,0V12H12.71a8.46,8.46,0,0,0-8.46,8.46V88a8.45,8.45,0,0,0,8.46,8.45H88.79A8.45,8.45,0,0,0,97.25,88V20.41A8.46,8.46,0,0,0,88.79,12M93,88a4.23,4.23,0,0,1-4.23,4.23H12.71A4.23,4.23,0,0,1,8.48,88V37.31H93Zm0-54.95H8.48V20.41a4.23,4.23,0,0,1,4.23-4.24h8.45v6.35a2.11,2.11,0,0,0,4.22,0V16.17H76.12v6.35a2.11,2.11,0,1,0,4.22,0V16.17h8.45A4.23,4.23,0,0,1,93,20.41ZM65.64,81.64h4V47.69h-3a7.74,7.74,0,0,1-1.22,3.16,6.52,6.52,0,0,1-2.16,2,8.49,8.49,0,0,1-2.86,1,19.18,19.18,0,0,1-3.25.26v3.26h8.56ZM45.49,76.88a6.8,6.8,0,0,1-2.28,1.29,8,8,0,0,1-2.74.46,6.39,6.39,0,0,1-5.16-2.09,8.43,8.43,0,0,1-1.86-5.38h-4a12.77,12.77,0,0,0,.72,4.69,9.08,9.08,0,0,0,5.7,5.6,13.62,13.62,0,0,0,4.55.72,14.73,14.73,0,0,0,4.4-.65,10.09,10.09,0,0,0,3.6-1.94,9.18,9.18,0,0,0,2.44-3.23,10.36,10.36,0,0,0,.91-4.48,9.55,9.55,0,0,0-1.47-5.32,6.88,6.88,0,0,0-4.48-2.92v-.09a8.43,8.43,0,0,0,3.25-2.68,6.71,6.71,0,0,0,1.3-4.08,9.91,9.91,0,0,0-.76-4.06,7.49,7.49,0,0,0-2.12-2.83,8.91,8.91,0,0,0-3.18-1.65,13.77,13.77,0,0,0-4-.55A10.79,10.79,0,0,0,36,48.5a8.68,8.68,0,0,0-3.14,2.25A10.16,10.16,0,0,0,31,54.2a16.16,16.16,0,0,0-.77,4.45h4a10.38,10.38,0,0,1,.37-2.82,6.86,6.86,0,0,1,1.14-2.35,5.56,5.56,0,0,1,2-1.6,6.08,6.08,0,0,1,2.77-.6,6.43,6.43,0,0,1,4.19,1.36,5,5,0,0,1,1.67,4.1,5.41,5.41,0,0,1-.51,2.39,5,5,0,0,1-1.37,1.75,6.38,6.38,0,0,1-2,1.06,8.25,8.25,0,0,1-2.4.36h-1.3a1.64,1.64,0,0,1-.42-.06V65.7a17.83,17.83,0,0,1,2.37-.15,8.84,8.84,0,0,1,2.77.41,5.92,5.92,0,0,1,2.21,1.24,6.38,6.38,0,0,1,1.49,2.06,6.73,6.73,0,0,1,.55,2.8,6.28,6.28,0,0,1-.58,2.76,6.15,6.15,0,0,1-1.56,2.06" transform="translate(-4.25 -3.49)"/></svg>