<svg xmlns="http://www.w3.org/2000/svg" viewBox="0 0 103 103"><defs><style>.cls-1{fill:#026cdf;fill-rule:evenodd;}</style></defs><title>TM1 Events Icon Set</title><g id="Custom_Floor" data-name="Custom Floor"><path class="cls-1" d="M30.2,38.54a4.58,4.58,0,1,1,4.58,4.57A4.57,4.57,0,0,1,30.2,38.54Zm4.58,18A4.58,4.58,0,1,0,30.2,52,4.58,4.58,0,0,0,34.78,56.53Zm4.57,8.83a4.58,4.58,0,1,0-4.57,4.58A4.58,4.58,0,0,0,39.35,65.36Zm14-35.66a4.58,4.58,0,1,0-4.58-4.57A4.58,4.58,0,0,0,53.33,29.7Zm0,13.41a4.57,4.57,0,1,0-4.58-4.57A4.57,4.57,0,0,0,53.33,43.11Zm0,13.42A4.58,4.58,0,1,0,48.75,52,4.58,4.58,0,0,0,53.33,56.53ZM71.88,29.7a4.58,4.58,0,1,0-4.58-4.57A4.58,4.58,0,0,0,71.88,29.7Zm0,44.5a4.58,4.58,0,1,0,4.57,4.58A4.58,4.58,0,0,0,71.88,74.2ZM10.25,31.61H2.88V67.78h7.37a8,8,0,0,0,8-8V39.61A8,8,0,0,0,10.25,31.61ZM95,52a4.57,4.57,0,0,1-8.3,2.65L76.43,64.88c0,.16,0,.32,0,.48a4.58,4.58,0,0,1-4.57,4.58l-.49,0-4.47,4.47L54.73,86.58l-20.9,6.5,6.5-20.9s.08-.08.1-.1l2.6-2.6,5.35-5.35.89-.89a4.62,4.62,0,0,1,1.92-1.92L63.26,49.25l6.62-6.61A4.57,4.57,0,1,1,76,36.49c1.29-1.3,2.59-2.6,3.91-3.86A17.36,17.36,0,0,1,87,28.11h0a4.57,4.57,0,1,1,8-3,4.53,4.53,0,0,1-1.51,3.37h0a7.23,7.23,0,0,1,1.49,1,10.71,10.71,0,0,1,3.83,6.05c1,5.13-2,9.24-5.61,12.81A4.55,4.55,0,0,1,95,52ZM80.11,36.71,90.2,46.8l3.49-3.49a10.89,10.89,0,0,0,3-7.08c0-3.55-4.26-7-7.68-6.21A12.33,12.33,0,0,0,83.84,33C83.5,33.27,80,36.61,80.11,36.71ZM52.28,83.23l1.22-9,.13-.93L43.18,74.7,40.69,85.36,43,84v3.69l9.24-3.91ZM88.05,49l-.53-.53L78,38.86l-2.43,2.43-.87.87L55.49,61.33l-6.2,6.19-4.13,4.13,10-1.41a1.52,1.52,0,0,1,1.52,1.52l-.49,3.44h0l-.92,6.54,2.63-2.63L68.53,68.48,75,62l10.94-11Zm2.38,11.84A4.58,4.58,0,1,0,95,65.36,4.58,4.58,0,0,0,90.43,60.79Zm0,13.41A4.58,4.58,0,1,0,95,78.78,4.58,4.58,0,0,0,90.43,74.2Z"/></g></svg>