<svg xmlns="http://www.w3.org/2000/svg" viewBox="0 0 103 103"><defs><style>.cls-1{fill:#026cdf;fill-rule:evenodd;}</style></defs><title>TM1 Events Icon Set</title><g id="Template"><path class="cls-1" d="M25.59,38.55H8.32A4.32,4.32,0,0,0,4,42.86V94.68A4.33,4.33,0,0,0,8.32,99H25.59a4.33,4.33,0,0,0,4.32-4.32V42.86a4.32,4.32,0,0,0-4.32-4.31m0,56.13H8.32V42.86H25.59ZM94.68,4H8.32A4.33,4.33,0,0,0,4,8.32V25.59a4.33,4.33,0,0,0,4.32,4.32H94.68A4.33,4.33,0,0,0,99,25.59V8.32A4.33,4.33,0,0,0,94.68,4m0,21.59H8.32V8.32H94.68Zm0,13H42.86a4.31,4.31,0,0,0-4.31,4.31V94.68A4.32,4.32,0,0,0,42.86,99H94.68A4.33,4.33,0,0,0,99,94.68V42.86a4.32,4.32,0,0,0-4.32-4.31m0,56.13H42.86V42.86H94.68Z"/></g></svg>