<svg xmlns="http://www.w3.org/2000/svg" viewBox="0 0 103 103"><defs><style>.cls-1{fill:#026cdf;}.cls-2,.cls-3,.cls-4{fill:none;stroke:#026cdf;}.cls-2{stroke-linecap:round;stroke-width:2px;}.cls-2,.cls-3{stroke-miterlimit:10;}.cls-3,.cls-4{stroke-width:3px;}.cls-4{stroke-linejoin:round;}</style></defs><title>TM1 Events Icon Set</title><g id="Event_Image" data-name="Event Image"><path class="cls-1" d="M89,80A10,10,0,1,1,79,90,10,10,0,0,1,89,80m0-3a13,13,0,1,0,13,13A13,13,0,0,0,89,77Z"/><line class="cls-2" x1="89" y1="84" x2="89" y2="97"/><line class="cls-2" x1="83" y1="90" x2="89" y2="84"/><line class="cls-2" x1="95" y1="90" x2="89" y2="84"/><path class="cls-3" d="M79,93.5H8.89c-3.51,0-6.39-3.31-6.39-7.36V9.86c0-4,2.88-7.36,6.39-7.36H86.11c3.51,0,6.39,3.31,6.39,7.36V79"/><circle class="cls-3" cx="25.5" cy="23.5" r="9"/><polygon class="cls-4" points="14.5 80.5 34.5 44.5 47.5 65.5 58.5 52.5 76.5 80.5 14.5 80.5"/></g></svg>