<svg id="Collaborators" xmlns="http://www.w3.org/2000/svg" viewBox="0 0 103 103"><defs><style>.cls-1{fill:#026cdf;fill-rule:evenodd;}</style></defs><title>TM1 Events Icon Set</title><path class="cls-1" d="M13.23,71.09c3-.82,8.15-4.16,8.15-11.71,0-6.76-2.24-9.75-3.44-11.34l-.15-.2a.21.21,0,0,0,0-.06A7.41,7.41,0,0,1,18,43.89a4.58,4.58,0,0,0-.32-3c-.9-2-2.58-5.57-1.4-8.3,2-4.68,2.77-5,5-6a3.6,3.6,0,0,0,.61-.33A12.14,12.14,0,0,1,27,25.17a6.32,6.32,0,0,1,2.77.56,15.79,15.79,0,0,1,.74-2.27c.27-.67.56-1.24.84-1.84A11.08,11.08,0,0,0,27,20.78a15.94,15.94,0,0,0-7.5,1.86c-3.57,1.53-5.07,2.94-7.31,8.32-2,4.52.37,9.42,1.51,11.89-1.4,5.63.54,7.57.54,7.57,1,1.37,2.74,3.34,2.74,9,0,6.39-5,7.5-5,7.5C7.87,68.28,2.47,71.25,2.47,80a2.16,2.16,0,0,0,2.22,2.2h9.94a18.2,18.2,0,0,1,2.1-4.39H7.09c.67-4.17,3.29-5.74,6.14-6.74m77.84-4.21s-5-1.11-5-7.5c0-5.62,1.71-7.59,2.73-9,0,0,1.93-1.94.54-7.57,1.14-2.47,3.47-7.37,1.51-11.89-2.25-5.38-3.74-6.79-7.31-8.32a15.94,15.94,0,0,0-7.5-1.86,10.92,10.92,0,0,0-4.49.9A31.85,31.85,0,0,1,73,25.89l.18-.1a6.11,6.11,0,0,1,2.92-.62,12.14,12.14,0,0,1,5.11,1.16,3.6,3.6,0,0,0,.61.33c2.19.94,3,1.29,5,6,1.18,2.73-.5,6.35-1.4,8.3a4.58,4.58,0,0,0-.32,3,7.34,7.34,0,0,1,.22,3.89l0,.06-.15.2c-1.21,1.59-3.44,4.58-3.44,11.34,0,7.55,5.16,10.89,8.15,11.71,2.85,1,5.47,2.57,6.14,6.74H86.27a18.2,18.2,0,0,1,2.1,4.39h9.94a2.16,2.16,0,0,0,2.22-2.2c0-8.77-5.4-11.74-9.46-13.14M69.28,71.72s-8-1.88-8-10.09c0-7.22,3.29-9.76,4.55-11.52,0,0,2.61-2.24.86-9.49,2.91-4,3.86-10.44.3-18.42-2-4.66-3.74-7.22-6.4-8.7A12.92,12.92,0,0,0,54.24,12a19.48,19.48,0,0,0-9.37,2.39c-4.46,2-7.46,3.78-10.27,10.7-2.44,5.81.46,12.12,1.89,15.28-1.74,7.25.67,9.74.67,9.74,1.27,1.76,4.55,4.3,4.55,11.52,0,8.21-8,10.09-8,10.09C28.65,73.51,18.07,77,18.07,88.81A2.15,2.15,0,0,0,20.29,91H82.71a2.15,2.15,0,0,0,2.22-2.19c0-11.85-10.58-15.3-15.65-17.09M22.7,86.61c1-6.18,6.54-8.64,12.16-10.63l.17-.06c4-1,11.14-5.26,11.14-14.29,0-7.66-3.15-11.4-4.85-13.41-.34-.41-.74-.93-.65-.82-.14-.29-.81-2,.16-6a3.61,3.61,0,0,0-.32-2.91C39.3,35.79,37,30.77,38.73,26.72c2.28-5.61,4.3-6.71,8-8.33a6.08,6.08,0,0,0,.62-.33,15.27,15.27,0,0,1,6.93-1.67,8.41,8.41,0,0,1,4.15.93c1.33.73,2.6,2.14,4.52,6.64,3.58,8,1.31,12.54.17,14.1a4.3,4.3,0,0,0-.72,3.57c.88,3.69.31,5.24.16,5.55,0,0-.57.71-.85,1-1.69,2-4.84,5.75-4.84,13.41,0,9,7.13,13.24,11.14,14.29l.17.06c5.62,2,11.12,4.45,12.16,10.63Z"/></svg>